<?xml version="1.0" standalone="no"?>
<!DOCTYPE svg PUBLIC "-//W3C//DTD SVG 20010904//EN"
 "http://www.w3.org/TR/2001/REC-SVG-20010904/DTD/svg10.dtd">
<svg version="1.0" xmlns="http://www.w3.org/2000/svg"
 width="184.000000pt" height="174.000000pt" viewBox="0 0 184.000000 174.000000"
 preserveAspectRatio="xMidYMid meet">

<g transform="translate(0.000000,174.000000) scale(0.100000,-0.100000)"
fill="#c70101" stroke="none">
<path d="M629 1358 c-150 -134 -284 -253 -299 -265 -41 -33 -55 -76 -40 -113
25 -61 90 -68 147 -17 21 19 128 114 238 212 110 98 215 189 233 203 33 25 33
25 55 5 53 -46 336 -300 377 -337 125 -113 129 -116 169 -116 31 0 44 6 60 26
12 15 21 35 21 46 0 25 -23 69 -47 88 -29 25 -286 255 -432 388 -122 112 -136
122 -172 122 -37 0 -55 -14 -310 -242z"/>
<path d="M908 877 c-49 -21 -615 -533 -622 -562 -14 -55 43 -115 98 -101 15 4
89 62 164 129 317 283 383 339 395 334 6 -3 128 -109 271 -236 231 -207 262
-231 292 -231 24 0 43 8 59 25 46 45 28 92 -66 175 -35 30 -164 146 -287 258
-185 168 -257 226 -275 222 -1 -1 -14 -6 -29 -13z"/>
</g>
</svg>
